<svg width="742" height="146" viewBox="0 0 742 146" fill="none" xmlns="http://www.w3.org/2000/svg">
<path d="M199.98 56.6667V50H203.314V30H199.98V23.3333H216.647V30H213.314V36.6667H219.98V23.3333H223.314V60H219.98V43.3333H213.314V50H216.647V56.6667H199.98ZM206.647 50H209.98V30H206.647V50ZM226.647 60V23.3333H233.314V60H226.647ZM239.98 53.3333V26.6667H243.314V23.3333H256.647V26.6667H259.98V53.3333H256.647V56.6667H243.314V53.3333H239.98ZM266.647 60V23.3333H273.314V60H266.647ZM246.647 50H253.314V30H246.647V50ZM279.98 56.6667V46.6667H283.314V36.6667H286.647V30H279.98V23.3333H299.98V30H293.314V36.6667H296.647V46.6667H299.98V56.6667H293.314V50H286.647V56.6667H279.98ZM306.647 60V23.3333H313.314V60H306.647ZM319.98 43.3333V40H356.647V43.3333H319.98ZM323.314 23.3333H353.314V30H336.647V26.6667H323.314V23.3333ZM323.314 53.3333H336.647V56.6667H353.314V60H323.314V53.3333ZM323.314 50V46.6667H353.314V53.3333H336.647V50H323.314ZM323.314 36.6667V30H336.647V33.3333H353.314V36.6667H323.314ZM690.02 53.3333H696.686V60H690.02V53.3333ZM410 109.667V103H426.667V99.6667H413.333V86.3333H436.667V83H413.333V76.3333H443.333V89.6667H420V93H443.333V99.6667H433.333V103H446.667V109.667H410ZM466.68 106.333V79.6667H470.013V76.3333H483.346V79.6667H486.68V106.333H483.346V109.667H470.013V106.333H466.68ZM493.346 113V76.3333H500.013V113H493.346ZM473.346 103H480.013V83H473.346V103ZM536.68 76.3333V79.6667H540.013V86.3333H536.68V93H543.346V96.3333H506.68V93H513.346V86.3333H510.013V79.6667H513.346V76.3333H536.68ZM536.68 109.667V113H513.346V109.667H510.013V103H513.346V99.6667H536.68V103H540.013V109.667H536.68ZM520.013 89.6667V93H530.013V89.6667H520.013ZM533.346 106.333V103H516.68V106.333H533.346ZM533.346 83V79.6667H516.68V83H533.346ZM546.68 106.333V93H550.013V89.6667H560.013V93H563.346V106.333H560.013V109.667H550.013V106.333H546.68ZM546.68 79.6667H553.346V76.3333H560.013V79.6667H563.346V86.3333H546.68V79.6667ZM553.346 103H556.68V96.3333H553.346V103ZM566.68 113V76.3333H570.013V89.6667H573.346V76.3333H580.013V113H573.346V96.3333H570.013V113H566.68ZM586.68 96.3333H623.346V103H610.013V113H603.346V103H586.68V96.3333ZM600.013 89.6667V93H590.013V86.3333H596.68V83H590.013V76.3333H620.013V83H613.346V86.3333H620.013V93H610.013V89.6667H606.68V86.3333H603.346V89.6667H600.013ZM626.68 109.667V99.6667H630.013V89.6667H633.346V76.3333H640.013V86.3333H646.68V76.3333H650.013V113H646.68V109.667H640.013V103H633.346V109.667H626.68ZM646.68 99.6667V93H643.346V99.6667H646.68ZM653.346 113V76.3333H660.013V113H653.346ZM666.68 109.667V103H673.346V93H670.013V79.6667H673.346V76.3333H696.68V79.6667H700.013V93H696.68V103H703.346V109.667H666.68ZM693.346 89.6667V83H676.68V89.6667H693.346ZM680.013 96.3333V103H690.013V96.3333H680.013Z" fill="black"/>
<path d="M376.66 43.3333V36.6667H383.327V33.3333H376.66V26.6667H386.66V23.3333H393.327V26.6667H399.993V33.3333H393.327V36.6667H399.993V43.3333H393.327V40H389.993V36.6667H386.66V40H383.327V43.3333H376.66ZM389.993 56.6667V60H379.993V53.3333H386.66V50H379.993V46.6667H409.993V50H403.327V53.3333H409.993V60H399.993V56.6667H396.66V53.3333H393.327V56.6667H389.993ZM403.327 43.3333V23.3333H409.993V30H413.327V36.6667H409.993V43.3333H403.327ZM446.66 23.3333V26.6667H449.993V33.3333H446.66V36.6667H453.327V40H416.66V36.6667H423.327V33.3333H419.993V26.6667H423.327V23.3333H446.66ZM443.327 30V26.6667H426.66V30H443.327ZM419.993 60V50H433.327V53.3333H449.993V60H419.993ZM419.993 46.6667V43.3333H449.993V50H433.327V46.6667H419.993ZM473.34 46.6667V40H510.007V46.6667H496.673V60H490.007V46.6667H473.34ZM486.673 36.6667H476.673V30H483.34V26.6667H486.673V23.3333H496.673V26.6667H500.007V30H506.673V36.6667H496.673V33.3333H493.34V30H490.007V33.3333H486.673V36.6667ZM530.02 40V26.6667H533.353V23.3333H546.686V26.6667H550.02V30H556.686V23.3333H563.353V43.3333H556.686V36.6667H550.02V40H546.686V43.3333H533.353V40H530.02ZM560.02 53.3333H563.353V60H556.686V56.6667H553.353V60H533.353V46.6667H540.02V50H543.353V46.6667H550.02V53.3333H553.353V46.6667H560.02V53.3333ZM536.686 36.6667H543.353V30H536.686V36.6667ZM543.353 53.3333H540.02V56.6667H543.353V53.3333ZM570.02 43.3333V40H606.686V43.3333H603.353V60H573.353V43.3333H570.02ZM583.353 36.6667H573.353V30H580.02V26.6667H583.353V23.3333H593.353V26.6667H596.686V30H603.353V36.6667H593.353V33.3333H590.02V30H586.686V33.3333H583.353V36.6667ZM596.686 53.3333V50H580.02V53.3333H596.686ZM596.686 46.6667V43.3333H580.02V46.6667H596.686ZM610.02 56.6667V23.3333H616.686V50H633.353V56.6667H610.02ZM636.686 60V23.3333H643.353V60H636.686ZM650.02 56.6667V23.3333H670.02V30H656.686V50H673.353V56.6667H650.02ZM676.686 60V23.3333H683.353V36.6667H686.686V43.3333H683.353V60H676.686Z" fill="#B93232"/>
<path d="M223.32 76.3333V79.6667H226.654V86.3333H223.32V89.6667H216.654V93H229.987V96.3333H226.654V103H209.987V99.6667H196.654V96.3333H193.32V93H209.987V89.6667H199.987V86.3333H196.654V79.6667H199.987V76.3333H223.32ZM219.987 83V79.6667H203.32V83H219.987ZM196.654 113V103H209.987V106.333H226.654V113H196.654ZM233.32 109.667V76.3333H239.987V86.3333H246.654V76.3333H253.32V109.667H233.32ZM259.987 113V76.3333H266.654V89.6667H269.987V96.3333H266.654V113H259.987ZM239.987 103H246.654V93H239.987V103ZM276.654 76.3333H306.654V83H289.987V79.6667H276.654V76.3333ZM273.32 99.6667V96.3333H309.987V99.6667H273.32ZM276.654 113V103H283.32V106.333H306.654V113H276.654ZM276.654 93V83H289.987V86.3333H306.654V93H276.654ZM330 96.3333V89.6667H340V86.3333H343.333V83H330V76.3333H350V79.6667H356.667V76.3333H363.333V96.3333H356.667V93H350V89.6667H346.667V93H343.333V96.3333H330ZM360 109.667V113H336.667V109.667H333.333V103H336.667V99.6667H360V103H363.333V109.667H360ZM350 83V86.3333H356.667V83H350ZM356.667 106.333V103H340V106.333H356.667ZM370 109.667V103H386.667V99.6667H373.333V86.3333H396.667V83H373.333V76.3333H403.333V89.6667H380V93H403.333V99.6667H393.333V103H406.667V109.667H370Z" fill="#2D54B8"/>
<path d="M137.115 20.565H130.275V13.725H123.39V6.84H109.71V0H34.2449V6.84H82.2599V13.725H95.9849V20.565H102.825V27.45H109.71V61.695H102.825V68.58H95.9849V137.16H20.5649V144H116.55V137.16H123.39V130.275H130.275V123.435H137.115V61.695H144V27.45H137.115V20.565Z" fill="black"/>
<path d="M75.4202 95.985H68.5352V102.87H75.4202V95.985Z" fill="black"/>
<path d="M68.5348 82.3051H61.6948V89.145H68.5348V82.3051Z" fill="black"/>
<path d="M68.5349 102.87H41.1299V109.71H68.5349V102.87Z" fill="black"/>
<path d="M47.9699 82.3051H41.1299V89.145H47.9699V82.3051Z" fill="black"/>
<path d="M41.1301 95.985H34.2451V102.87H41.1301V95.985Z" fill="black"/>
<path d="M34.2449 6.83997H20.5649V13.725H34.2449V6.83997Z" fill="black"/>
<path d="M20.5652 68.58H13.6802V137.16H20.5652V68.58Z" fill="black"/>
<path d="M20.5652 13.725H13.6802V20.565H20.5652V13.725Z" fill="black"/>
<path d="M13.6798 61.6949H6.83984V68.5799H13.6798V61.6949Z" fill="black"/>
<path d="M13.6798 20.5649H6.83984V27.4499H13.6798V20.5649Z" fill="black"/>
<path d="M6.84 27.45H0V61.695H6.84V27.45Z" fill="black"/>
</svg>
