<svg width="183" height="75" viewBox="0 0 183 75" fill="none" xmlns="http://www.w3.org/2000/svg">
<path d="M46.875 62.5V68.75H43.75V71.875H31.25V68.75H28.125V62.5H46.875Z" fill="white"/>
<path d="M65.625 53.125V50H62.5V43.75H59.375V25H56.25V18.75H53.125V15.625H50V12.5H43.75V9.375H40.625V3.125H34.375V9.375H31.25V12.5H25V15.625H21.875V18.75H18.75V25H15.625V43.75H12.5V50H9.375V53.125H6.25V56.25H9.375V59.375H65.625V56.25H68.75V53.125H65.625ZM43.75 18.75V28.125H40.625V37.5H34.375V28.125H31.25V18.75H43.75ZM34.375 43.75H40.625V50H34.375V43.75Z" fill="white"/>
<path d="M83 42V34H87V30H91V18H99V30H103V34H107V42H99V38H91V42H83ZM115 46V18H123V46H115ZM87 62V46H95V54H123V62H87ZM131 58V50H147V34H155V50H175V58H131ZM135 18H171V46H163V26H135V18Z" fill="white"/>
</svg>
